<svg width="20" height="20" viewBox="0 0 20 20" fill="none" xmlns="http://www.w3.org/2000/svg">
<path d="M18.75 8.75008H4.7875L10.8875 2.65008C11.375 2.16258 11.375 1.36258 10.8875 0.875076C10.7719 0.759197 10.6345 0.667262 10.4833 0.604535C10.3321 0.541809 10.17 0.509521 10.0062 0.509521C9.84254 0.509521 9.68043 0.541809 9.52922 0.604535C9.378 0.667262 9.24064 0.759197 9.125 0.875076L0.887497 9.11258C0.771618 9.22822 0.679684 9.36558 0.616957 9.5168C0.55423 9.66801 0.521942 9.83012 0.521942 9.99383C0.521942 10.1575 0.55423 10.3196 0.616957 10.4709C0.679684 10.6221 0.771618 10.7594 0.887497 10.8751L9.125 19.1126C9.24072 19.2283 9.37811 19.3201 9.52932 19.3827C9.68052 19.4454 9.84258 19.4776 10.0062 19.4776C10.1699 19.4776 10.332 19.4454 10.4832 19.3827C10.6344 19.3201 10.7718 19.2283 10.8875 19.1126C11.0032 18.9968 11.095 18.8595 11.1577 18.7083C11.2203 18.557 11.2525 18.395 11.2525 18.2313C11.2525 18.0677 11.2203 17.9056 11.1577 17.7544C11.095 17.6032 11.0032 17.4658 10.8875 17.3501L4.7875 11.2501H18.75C19.4375 11.2501 20 10.6876 20 10.0001C20 9.31258 19.4375 8.75008 18.75 8.75008Z" fill="black"/>
</svg>
