<svg width="35" height="35" viewBox="0 0 35 35" fill="none" xmlns="http://www.w3.org/2000/svg">
<rect y="0.00292969" width="35" height="35" rx="17.5" fill="#191622" fill-opacity="0.1"/>
<path d="M20.782 8.22313L25.277 12.7171C25.404 12.8441 25.4812 13.0125 25.4946 13.1916C25.508 13.3707 25.4567 13.5487 25.35 13.6931L25.278 13.7781L20.783 18.2821C20.6491 18.4154 20.4699 18.4933 20.2812 18.5002C20.0924 18.5071 19.908 18.4426 19.7648 18.3194C19.6216 18.1963 19.5301 18.0236 19.5086 17.8359C19.4871 17.6483 19.5373 17.4594 19.649 17.3071L19.721 17.2231L22.938 14.0001H11.242C11.0611 13.9999 10.8863 13.9343 10.75 13.8154C10.6136 13.6965 10.5248 13.5323 10.5 13.3531L10.493 13.2521C10.493 13.0709 10.5586 12.8958 10.6777 12.7592C10.7969 12.6226 10.9614 12.5338 11.141 12.5091L11.243 12.5021L22.941 12.5011L19.723 9.28413C19.596 9.15714 19.5187 8.98878 19.5053 8.80968C19.4919 8.63057 19.5433 8.4526 19.65 8.30813L19.723 8.22413C19.85 8.09711 20.0183 8.01988 20.1974 8.00648C20.3765 7.99309 20.5545 8.04441 20.699 8.15113L20.783 8.22413L20.782 8.22313ZM25.5 22.6531L25.507 22.7531C25.5072 22.9345 25.4417 23.1099 25.3225 23.2467C25.2034 23.3835 25.0387 23.4725 24.859 23.4971L24.757 23.5041L13.061 23.5031L16.282 26.7231C16.409 26.8501 16.4862 27.0185 16.4996 27.1976C16.513 27.3767 16.4617 27.5547 16.355 27.6991L16.283 27.7831C16.1559 27.9104 15.9874 27.9878 15.808 28.0012C15.6287 28.0146 15.4505 27.9631 15.306 27.8561L15.222 27.7841L10.722 23.2871C10.595 23.1601 10.5177 22.9918 10.5043 22.8127C10.4909 22.6336 10.5423 22.4556 10.649 22.3111L10.722 22.2271L15.222 17.7231C15.356 17.5902 15.5352 17.5126 15.7238 17.506C15.9125 17.4993 16.0967 17.5641 16.2397 17.6873C16.3828 17.8105 16.4741 17.9831 16.4954 18.1706C16.5168 18.3582 16.4666 18.5469 16.355 18.6991L16.283 18.7831L13.065 22.0031H24.757C24.9385 22.0032 25.1139 22.0691 25.2505 22.1886C25.3871 22.3082 25.4758 22.4732 25.5 22.6531Z" fill="black"/>
</svg>
